<svg width="196" height="67" viewBox="0 0 196 67" fill="none" xmlns="http://www.w3.org/2000/svg">
<g clip-path="url(#clip0_477_1947)">
<path fill-rule="evenodd" clip-rule="evenodd" d="M25.7008 44.2457C16.8918 43.5682 14.0306 38.7336 13.2318 35.3889C13.2318 35.3889 14.9542 35.8553 17.2042 36.1636C17.2106 36.1646 17.8126 36.2483 17.8247 36.0879C17.8484 35.779 12.7531 34.2782 10.2843 30.0437C8.35783 26.7392 8.23998 23.5707 8.23998 23.5707C13.4094 24.5693 16.5862 25.8205 32.8497 25.4149C37.886 25.4149 40.1328 26.4573 40.1328 32.6333C40.1328 36.9461 38.2478 44.1619 25.7008 44.2457ZM48.2353 32.4027C48.2353 31.5944 47.3794 31.0761 46.321 30.7434L46.342 30.7218C46.342 30.7218 46.2788 30.7166 46.1785 30.7002C46.0083 30.6503 45.8339 30.6045 45.6576 30.5633C45.4194 30.4753 45.1642 30.3407 44.9729 30.1339C44.7516 29.8949 44.6181 29.5908 44.5376 29.3308C43.8662 24.8509 41.3279 20.7523 32.8497 20.7523H18.1243C17.6258 20.7356 16.2726 20.6576 13.0664 20.3065C9.95694 19.966 7.17486 18.9854 7.14899 18.9764L4.41962 18L4.08076 20.9012C4.03956 21.2536 3.15489 29.4368 8.39583 33.5898L8.39136 33.6378C8.18984 35.8347 9.02979 40.6274 13.5828 44.504C23.4521 52.9076 36.8659 47.6326 40.2972 43.9361C42.4447 41.6222 43.9851 38.8895 44.5175 35.6099C44.5954 35.337 44.7327 35.0004 44.9729 34.7407C45.077 34.6283 45.2003 34.5381 45.329 34.464C45.6736 34.3754 46.0172 34.2727 46.3414 34.1528C47.3902 33.766 48.2353 33.2054 48.2353 32.4027ZM35.3287 28.213C34.1863 28.213 33.4173 28.9223 33.4173 30.2302C33.4173 31.4492 34.1863 32.1366 35.3287 32.1366C36.45 32.1366 37.2632 31.405 37.2632 30.208C37.2632 28.9001 36.5816 28.213 35.3287 28.213Z" fill="#3291F0"/>
<path fill-rule="evenodd" clip-rule="evenodd" d="M64.1196 40.9773C63.7745 41.1634 63.1373 41.2964 62.2079 41.2964C61.2786 41.2964 60.6413 41.1634 60.2695 40.9773V28.2905C60.9867 27.8916 62.1283 27.6788 63.4024 27.6788L63.6155 29.8598H63.8277C64.4382 28.5564 65.7394 27.4129 68.1293 27.4129C69.6956 27.4129 71.2622 27.8651 71.9791 29.7267H72.1916C72.7491 28.4766 74.0498 27.4129 76.4135 27.4129C78.4045 27.4129 80.7409 28.131 80.7409 32.5196V40.9773C80.3958 41.1634 79.7589 41.2964 78.8292 41.2964C77.8998 41.2964 77.2629 41.1634 76.8911 40.9773V33.2111C76.8911 31.828 76.4396 30.9503 74.9265 30.9503C73.5986 30.9503 72.8285 31.6416 72.3773 32.4663C72.4038 32.7056 72.4305 33.2641 72.4305 33.8227V40.9773C72.0855 41.1634 71.4744 41.2964 70.545 41.2964C69.6162 41.2964 69.0052 41.1634 68.6334 40.9773V33.2111C68.6334 31.828 68.1819 30.9503 66.6688 30.9503C65.3147 30.9503 64.5711 31.6416 64.1196 32.4663V40.9773ZM90.2994 38.5568C92.1317 38.5568 92.9547 37.0144 92.9547 34.3811C92.9547 32.0408 91.9989 30.5778 90.2994 30.5778C88.5206 30.5778 87.6444 32.0408 87.6444 34.3811C87.6444 37.0144 88.5473 38.5568 90.2994 38.5568ZM96.9112 34.3546C96.9112 39.1421 94.3885 41.7221 90.2994 41.7221C86.0246 41.7221 83.6882 39.2752 83.6882 34.3546C83.6882 29.9928 86.37 27.4128 90.2994 27.4128C94.3091 27.4128 96.9112 29.8332 96.9112 34.3546ZM103.735 40.9773C103.389 41.1634 102.752 41.2964 101.823 41.2964C100.893 41.2964 100.256 41.1634 99.8844 40.9773V28.2905C100.602 27.8916 101.743 27.6788 103.017 27.6788L103.23 29.8598H103.443C104.08 28.4766 105.434 27.4129 107.85 27.4129C109.868 27.4129 112.258 28.131 112.258 32.5196V40.9773C111.913 41.1634 111.276 41.2964 110.346 41.2964C109.417 41.2964 108.78 41.1634 108.408 40.9773V33.2111C108.408 31.828 107.93 30.9503 106.363 30.9503C104.983 30.9503 104.212 31.6416 103.735 32.4663V40.9773ZM123.861 33.0248C124.073 31.6416 123.568 30.2853 121.657 30.2853C120.011 30.2853 119.001 31.3493 118.895 33.0248H123.861ZM119.001 35.8176C119.161 37.6793 120.488 38.5834 123.117 38.5834C124.816 38.5834 126.303 38.2113 127.259 37.7855C127.339 38.7963 126.914 40.0994 126.303 40.791C125.427 41.2965 123.94 41.7219 122.108 41.7219C117.461 41.7219 114.992 39.0356 114.992 34.7271C114.992 30.2853 117.647 27.4129 121.816 27.4129C125.692 27.4129 127.472 29.8065 127.472 33.3175C127.472 34.1686 127.312 35.1261 127.073 35.8176H119.001ZM149.831 38.3176C150.203 38.4239 150.814 38.5037 151.398 38.5037C153.893 38.5037 154.929 36.9878 154.929 34.3813C154.929 31.9609 153.974 30.7909 152.274 30.7909C151.053 30.7909 150.336 31.3491 149.831 32.0142V38.3176ZM149.805 29.5408C150.283 28.4502 151.478 27.413 153.495 27.413C156.23 27.413 158.885 29.115 158.885 34.0353C158.885 39.0887 156.098 41.722 151.291 41.722C149.406 41.722 147.442 41.3231 146.035 40.7113V22.12C146.937 21.6148 148.185 21.3489 149.884 21.3489V25.6309C149.884 26.8012 149.778 28.4502 149.592 29.5408H149.805ZM161.806 28.1575C162.177 27.9715 162.815 27.8384 163.744 27.8384C164.673 27.8384 165.311 27.9715 165.656 28.1575V40.9773C165.311 41.1634 164.673 41.2965 163.744 41.2965C162.815 41.2965 162.177 41.1634 161.806 40.9773V28.1575ZM176.409 27.4129C176.914 27.4129 177.338 27.4927 177.657 27.6523C178.029 28.3171 178.215 29.0619 178.215 30.0727C178.215 30.8438 178.108 31.3225 177.976 31.6949C177.471 31.4023 176.967 31.243 176.143 31.243C174.789 31.243 173.78 32.1737 173.276 33.5568V40.9773C172.931 41.1634 172.293 41.2965 171.364 41.2965C170.435 41.2965 169.797 41.1634 169.426 40.9773V28.2906C170.143 27.8916 171.258 27.6788 172.532 27.6788L172.798 30.1257H173.01C173.382 28.663 174.232 27.4129 176.409 27.4129ZM140.904 27.7321C139.975 27.7321 139.337 27.8652 138.992 28.0512V36.5623C138.488 37.4131 137.718 38.1312 136.284 38.1312C134.691 38.1312 134.186 37.2271 134.186 35.8177V28.0512C133.815 27.8652 133.177 27.7321 132.248 27.7321C131.319 27.7321 130.682 27.8652 130.336 28.0512V36.509C130.336 40.8976 132.753 41.6156 134.824 41.6156C137.267 41.6156 138.288 40.8582 138.872 39.5284H139.048C139.054 42.2115 139.06 42.0858 139.039 42.5172C138.953 44.2868 137.585 45.0958 135.099 45.0958C133.468 45.0958 132.042 44.7387 131.125 44.3304C131.048 45.2998 131.456 46.5502 132.042 47.2139C132.883 47.6986 134.309 48.1072 136.067 48.1072C139.963 48.1072 142.832 45.9797 142.832 42.6828C142.832 41.8482 142.836 36.4796 142.838 33.5246L142.839 33.5227V31.5881V31.581V28.0512C142.468 27.8652 141.833 27.7321 140.904 27.7321ZM188.344 32.0142C187.839 31.3491 187.122 30.7906 185.901 30.7906C184.201 30.7906 183.246 31.9609 183.246 34.3813C183.246 36.9878 184.282 38.5037 186.777 38.5037C187.361 38.5037 187.972 38.424 188.344 38.3177V32.0142ZM188.583 29.5408C188.397 28.4503 188.291 26.8012 188.291 25.6309V21.3486C189.99 21.3486 191.074 21.6122 191.999 22.1175V40.6883C190.57 41.3001 188.769 41.722 186.884 41.722C182.077 41.722 179.29 39.0888 179.29 34.0354C179.29 29.1151 181.945 27.413 184.679 27.413C186.697 27.413 187.892 28.4503 188.37 29.5408H188.583Z" fill="#3291F0"/>
</g>
<defs>
<clipPath id="clip0_477_1947">
<rect width="188" height="31" fill="white" transform="translate(4 18)"/>
</clipPath>
</defs>
</svg>
