<svg width="61" height="61" viewBox="0 0 61 61" fill="none" xmlns="http://www.w3.org/2000/svg">
<g clip-path="url(#clip0_477_1981)">
<path fill-rule="evenodd" clip-rule="evenodd" d="M8.96875 20.7729H53.2964V40.5979H8.96875V20.7729Z" fill="white"/>
<path d="M60.5995 30.3854C60.5995 46.9749 47.1175 60.4569 30.528 60.4569C13.9385 60.4569 0.457031 46.9698 0.457031 30.3854C0.457031 13.8011 13.938 0.313965 30.528 0.313965C47.118 0.313965 60.5995 13.796 60.5995 30.3854ZM13.8882 39.1567C14.8906 39.1567 15.7426 38.8558 16.3943 38.2046C17.046 37.5534 17.3967 36.7508 17.3967 35.7987V27.0777C17.3967 26.7768 17.2966 26.4764 17.0409 26.2756C16.7852 26.0748 16.5397 25.9197 16.1889 25.9197C16.03 25.913 15.8715 25.9409 15.7244 26.0014C15.5773 26.062 15.4451 26.1538 15.337 26.2705C15.0864 26.4708 14.9811 26.7717 14.9811 27.0726V35.8434C14.9811 36.1992 14.881 36.4951 14.6253 36.6954C14.3696 36.8957 14.1241 37.0512 13.7733 37.0512C13.4724 37.0512 13.2218 37.1514 13.021 37.407C12.8207 37.6073 12.7201 37.8579 12.7201 38.1594C12.7201 38.4608 12.8202 38.7109 13.021 38.9117C13.3219 39.0622 13.5725 39.1623 13.873 39.1623L13.8882 39.1567ZM15.1911 24.4217C15.4417 24.6723 15.7924 24.7775 16.2433 24.7775C16.6942 24.7775 17.0455 24.6774 17.2956 24.4217C17.5457 24.166 17.6514 23.8701 17.6514 23.4192C17.6514 22.4671 17.2005 22.0162 16.2484 22.0162C15.2963 22.0162 14.8454 22.4671 14.8454 23.4192C14.8454 23.8701 14.9455 24.1716 15.2012 24.4217H15.1911ZM20.3532 34.6956C21.2052 35.5476 22.3581 35.9486 23.8617 35.9486C25.3654 35.9486 26.5183 35.5471 27.3702 34.6956C28.2222 33.8441 28.6233 32.5911 28.6233 30.8867C28.6233 29.1822 28.2217 27.9297 27.3702 27.0777C26.5188 26.2257 25.3654 25.8247 23.8617 25.8247C22.3581 25.8247 21.2052 26.2263 20.3532 27.0777C19.5012 27.9292 19.1002 29.1822 19.1002 30.8867C19.1002 32.5408 19.551 33.8436 20.3532 34.6956ZM23.9115 27.7289C25.5153 27.7289 26.3175 28.7811 26.3175 30.8867C26.3175 31.9389 26.1172 32.6912 25.7161 33.2423C25.315 33.7933 24.7137 34.0444 23.9115 34.0444C23.1094 34.0444 22.5085 33.7938 22.1069 33.2423C21.7054 32.6907 21.5056 31.9394 21.5056 30.8867C21.5056 28.7822 22.3077 27.7289 23.9115 27.7289ZM30.6724 35.4972C30.923 35.6975 31.1736 35.8531 31.5243 35.8531C31.6833 35.8598 31.8418 35.8319 31.9889 35.7714C32.136 35.7108 32.2682 35.619 32.3763 35.5023C32.6269 35.302 32.7321 35.0011 32.7321 34.7002V30.3397C32.7321 29.6382 32.9324 29.0368 33.3335 28.6358C33.7346 28.2347 34.3359 27.9841 35.0872 27.9841C35.3882 27.9841 35.6388 27.8839 35.8894 27.6831C36.0897 27.4829 36.1903 27.2322 36.1903 26.9308C36.1903 26.6294 36.0902 26.3793 35.8894 26.1785C35.6886 25.9777 35.3882 25.8775 35.0872 25.8775C34.6363 25.8775 34.1351 25.9777 33.7341 26.2334C33.3071 26.4597 32.9579 26.8089 32.7316 27.2358V27.1357C32.7316 26.8347 32.6315 26.5343 32.3758 26.3335C32.1201 26.1327 31.8746 25.9777 31.5238 25.9777C31.3649 25.9709 31.2064 25.9988 31.0593 26.0594C30.9122 26.1199 30.78 26.2117 30.6719 26.3284C30.4212 26.5287 30.316 26.8296 30.316 27.1306V34.7988C30.3669 34.9991 30.4665 35.3 30.6719 35.5003L30.6724 35.4972ZM37.6391 28.0298H38.1403V32.9912C38.1317 33.374 38.203 33.7545 38.3497 34.1083C38.4964 34.4621 38.7152 34.7814 38.9923 35.0458C39.5438 35.5974 40.3454 35.848 41.2975 35.848C41.5985 35.848 41.7988 35.7478 41.999 35.5471C42.1993 35.3463 42.3 35.1455 42.3 34.8456C42.3 34.595 42.1998 34.3443 41.999 34.1441C41.7983 33.9438 41.5482 33.8431 41.2975 33.8431C41.0973 33.8431 40.896 33.7923 40.746 33.6428C40.596 33.4934 40.4954 33.3419 40.4954 33.0913V28.0293H41.4978C41.7484 28.0293 41.999 27.9292 42.1993 27.7284C42.3996 27.5276 42.5003 27.3268 42.5003 27.0269C42.5003 26.7763 42.4001 26.5257 42.1993 26.3254C41.9985 26.1251 41.7977 26.0244 41.4978 26.0244H40.4954V24.2707C40.4954 23.9698 40.3953 23.7192 40.1396 23.5184C39.8839 23.3176 39.6383 23.1625 39.3374 23.1625C39.0365 23.1625 38.7361 23.2627 38.5353 23.5184C38.2847 23.7186 38.1794 24.0196 38.1794 24.2707V26.0244H37.6782C37.4276 26.0244 37.177 26.1246 36.9767 26.3254C36.7764 26.5262 36.6758 26.727 36.6758 27.0269C36.6758 27.2775 36.7759 27.5281 36.9767 27.7284C37.1775 27.9287 37.3783 28.0293 37.6284 28.0293L37.6391 28.0298ZM44.3048 28.0298H44.8061V32.9912C44.7975 33.374 44.8688 33.7545 45.0155 34.1083C45.1622 34.4621 45.381 34.7814 45.658 35.0458C46.2096 35.5974 47.0112 35.848 47.9633 35.848C48.2643 35.848 48.4645 35.7478 48.6648 35.5471C48.8651 35.3463 48.9658 35.1455 48.9658 34.8456C48.9658 34.595 48.8656 34.3443 48.6648 34.1441C48.464 33.9438 48.2139 33.8431 47.9633 33.8431C47.763 33.8431 47.5617 33.7923 47.4118 33.6428C47.2618 33.4934 47.1612 33.3419 47.1612 33.0913V28.0293H48.1636C48.4142 28.0293 48.6648 27.9292 48.8651 27.7284C49.0654 27.5276 49.166 27.3268 49.166 27.0269C49.166 26.7763 49.0659 26.5257 48.8651 26.3254C48.6643 26.1251 48.4635 26.0244 48.1636 26.0244H47.1729V24.2707C47.1729 23.9698 47.0727 23.7192 46.817 23.5184C46.5613 23.3176 46.3158 23.1625 46.0149 23.1625C45.7139 23.1625 45.4135 23.2627 45.2127 23.5184C44.9621 23.7186 44.8569 24.0196 44.8569 24.2707V26.0244H44.3557C44.1051 26.0244 43.8545 26.1246 43.6542 26.3254C43.4539 26.5262 43.3532 26.727 43.3532 27.0269C43.3532 27.2775 43.4534 27.5281 43.6542 27.7284C43.8046 27.9287 44.0558 28.0293 44.3059 28.0293L44.3048 28.0298Z" fill="#3399CC"/>
</g>
<defs>
<clipPath id="clip0_477_1981">
<rect width="61" height="61" fill="white"/>
</clipPath>
</defs>
</svg>
