<svg width="20" height="20" viewBox="0 0 20 20" fill="none" xmlns="http://www.w3.org/2000/svg">
<path fill-rule="evenodd" clip-rule="evenodd" d="M19 9.93592C18.9093 12.4639 17.94 17.3919 15.928 17.9239C13.7653 18.4973 12.2 18.5506 8.45467 17.7346C7.67867 17.6159 6.896 17.5519 6.11067 17.5439C6.04229 17.5422 5.97732 17.5137 5.9297 17.4646C5.88209 17.4155 5.85563 17.3497 5.856 17.2813V9.33325C5.85521 9.29355 5.86387 9.25424 5.88126 9.21854C5.89864 9.18284 5.92426 9.15178 5.956 9.12792C6.46533 8.76525 6.77067 7.81459 7.32 7.32392C8.352 6.40125 9.14 6.12525 9.832 5.60392C11.0213 4.70525 11.24 3.56525 11.6173 2.67059C11.9267 1.93725 12.436 1.41459 13.1987 1.75459C13.968 2.09859 14.7707 3.49592 13.8067 5.48259C13.5267 6.05992 13.1253 6.47992 12.756 7.49859C12.672 7.73459 12.652 8.10925 12.9227 8.09192C14.4327 7.97822 15.9496 7.9916 17.4573 8.13192C17.8941 8.18387 18.2952 8.39829 18.5811 8.73255C18.8669 9.06681 19.0165 9.49642 19 9.93592ZM4.856 17.4479V8.77992C4.856 8.71117 4.84244 8.6431 4.81609 8.5796C4.78974 8.5161 4.75112 8.45842 4.70244 8.40987C4.65377 8.36132 4.59599 8.32284 4.53243 8.29666C4.46886 8.27047 4.40075 8.25708 4.332 8.25725H1.52267C1.38405 8.25725 1.2511 8.31232 1.15309 8.41034C1.05507 8.50836 1 8.6413 1 8.77992V17.4479C1.0007 17.5864 1.05595 17.7191 1.15378 17.8172C1.25161 17.9153 1.38414 17.9709 1.52267 17.9719H4.33333C4.47209 17.9712 4.60497 17.9158 4.70308 17.8177C4.8012 17.7196 4.8553 17.5867 4.856 17.4479Z" fill="#DCE5FF"/>
</svg>
