<svg width="20" height="20" viewBox="0 0 20 20" fill="none" xmlns="http://www.w3.org/2000/svg">
<path fill-rule="evenodd" clip-rule="evenodd" d="M1 10.0641C1.09067 7.53608 2.06 2.60808 4.072 2.07608C6.23467 1.50275 7.8 1.44941 11.5453 2.26541C12.3213 2.38408 13.104 2.44808 13.8893 2.45608C13.9577 2.45782 14.0227 2.48631 14.0703 2.53542C14.1179 2.58453 14.1444 2.65034 14.144 2.71875V10.6667C14.1448 10.7064 14.1361 10.7458 14.1187 10.7815C14.1014 10.8172 14.0757 10.8482 14.044 10.8721C13.5347 11.2347 13.2293 12.1854 12.68 12.6761C11.648 13.5987 10.86 13.8747 10.168 14.3961C8.97867 15.2947 8.76 16.4347 8.38267 17.3294C8.07333 18.0627 7.564 18.5854 6.80133 18.2454C6.032 17.9014 5.22933 16.5041 6.19333 14.5174C6.47333 13.9401 6.87467 13.5201 7.244 12.5014C7.328 12.2654 7.348 11.8907 7.07733 11.9081C5.56732 12.0218 4.05043 12.0084 2.54267 11.8681C2.10593 11.8161 1.70475 11.6017 1.41891 11.2674C1.13308 10.9332 0.983522 10.5036 1 10.0641ZM15.144 2.55208V11.2201C15.144 11.2888 15.1576 11.3569 15.1839 11.4204C15.2103 11.4839 15.2489 11.5416 15.2976 11.5901C15.3462 11.6387 15.404 11.6772 15.4676 11.7033C15.5311 11.7295 15.5993 11.7429 15.668 11.7427H18.4773C18.616 11.7427 18.7489 11.6877 18.8469 11.5897C18.9449 11.4916 19 11.3587 19 11.2201V2.55208C18.9993 2.41355 18.9441 2.28088 18.8462 2.1828C18.7484 2.08472 18.6159 2.02913 18.4773 2.02808H15.6667C15.5279 2.02878 15.395 2.08421 15.2969 2.18233C15.1988 2.28045 15.1447 2.41332 15.144 2.55208Z" fill="#DCE5FF"/>
</svg>
