<svg width="72" height="17" viewBox="0 0 72 17" fill="none" xmlns="http://www.w3.org/2000/svg">
<g clip-path="url(#clip0_484_2319)">
<mask id="mask0_484_2319" style="mask-type:luminance" maskUnits="userSpaceOnUse" x="0" y="0" width="72" height="17">
<path d="M0 0H72V16.9542H0V0Z" fill="white"/>
</mask>
<g mask="url(#mask0_484_2319)">
<path d="M18.9205 6.125H26.2107V7.40613H23.3442V14.6081H21.7679V7.40613H18.9141V6.125H18.9205ZM25.8992 8.46574H27.2467V9.65116H27.2722C27.3166 9.48349 27.3993 9.32186 27.52 9.16619C27.6408 9.01051 27.787 8.86088 27.9586 8.73515C28.1302 8.60346 28.3209 8.50172 28.5307 8.41784C28.7404 8.34009 28.9564 8.29815 29.1725 8.29815C29.3379 8.29815 29.4586 8.30419 29.5222 8.31015C29.5857 8.3161 29.6493 8.3281 29.7192 8.33405V9.63917C29.6175 9.62122 29.5158 9.60922 29.4077 9.59723C29.2997 9.58523 29.198 9.57928 29.0963 9.57928C28.8547 9.57928 28.626 9.62717 28.4099 9.71701C28.1938 9.80675 28.0095 9.94448 27.8505 10.1181C27.6917 10.2977 27.5645 10.5132 27.4692 10.7766C27.3739 11.04 27.3293 11.3393 27.3293 11.6806V14.602H25.8929V8.46574H25.8992ZM36.323 14.6081H34.912V13.752H34.8865C34.7086 14.0633 34.448 14.3087 34.0984 14.4943C33.7489 14.6799 33.3929 14.7757 33.0307 14.7757C32.1726 14.7757 31.5497 14.5781 31.1684 14.177C30.787 13.7759 30.5963 13.1713 30.5963 12.3631V8.46574H32.0327V12.2314C32.0327 12.7702 32.1408 13.1533 32.3632 13.3749C32.5794 13.5963 32.8908 13.7101 33.2849 13.7101C33.5899 13.7101 33.8379 13.6682 34.0412 13.5783C34.2446 13.4886 34.4099 13.3749 34.5306 13.2251C34.6578 13.0815 34.7467 12.9019 34.8039 12.6983C34.8612 12.4947 34.8865 12.2733 34.8865 12.0338V8.47178H36.323V14.6081ZM38.77 12.6384C38.8145 13.0336 38.9734 13.3089 39.2467 13.4706C39.5264 13.6262 39.8569 13.7101 40.2446 13.7101C40.3781 13.7101 40.5306 13.6981 40.7023 13.6802C40.8677 13.6622 41.03 13.6239 41.1853 13.5664C41.3378 13.5125 41.4586 13.4287 41.5603 13.3209C41.6556 13.2131 41.7001 13.0755 41.6938 12.9019C41.6874 12.7282 41.6175 12.5846 41.4904 12.4768C41.3632 12.363 41.2044 12.2793 41.0074 12.2074C40.7873 12.1343 40.5622 12.0763 40.3336 12.0338C40.0794 11.9859 39.8251 11.932 39.5646 11.8782C39.2975 11.8242 39.037 11.7524 38.7891 11.6746C38.5412 11.5968 38.3188 11.4891 38.1217 11.3513C37.9247 11.2196 37.7658 11.046 37.6514 10.8365C37.5307 10.627 37.4734 10.3695 37.4734 10.0582C37.4734 9.72296 37.5624 9.44759 37.7341 9.22012C37.9056 8.99256 38.1281 8.81298 38.3887 8.67526C38.6556 8.53762 38.948 8.44183 39.2722 8.38194C39.5963 8.3281 39.9077 8.29815 40.2001 8.29815C40.537 8.29815 40.8611 8.33405 41.1662 8.39998C41.4713 8.46574 41.7509 8.57352 41.9989 8.72919C42.2467 8.87883 42.4501 9.07644 42.6154 9.31591C42.7806 9.55538 42.8823 9.84869 42.9268 10.1899H41.4268C41.3569 9.86664 41.2044 9.64512 40.9565 9.53734C40.7085 9.4236 40.4225 9.36976 40.1047 9.36976C40.003 9.36976 39.8824 9.37571 39.7425 9.39366C39.6083 9.41084 39.4763 9.44094 39.3484 9.48349C39.2277 9.52543 39.126 9.59127 39.037 9.67507C38.9544 9.75886 38.9099 9.86664 38.9099 10.0044C38.9099 10.1719 38.9734 10.3036 39.0942 10.4055C39.2149 10.5072 39.3738 10.591 39.5709 10.6629C39.7909 10.736 40.016 10.794 40.2446 10.8365C40.4988 10.8844 40.7594 10.9382 41.0263 10.9921C41.287 11.046 41.5412 11.1178 41.7955 11.1957C42.0497 11.2735 42.2721 11.3813 42.4692 11.5189C42.6662 11.6566 42.8251 11.8242 42.9459 12.0278C43.0666 12.2314 43.1302 12.4888 43.1302 12.7881C43.1302 13.1533 43.0413 13.4586 42.8632 13.7161C42.6853 13.9675 42.4564 14.177 42.1768 14.3326C41.8972 14.4883 41.5794 14.6081 41.2361 14.6799C40.9 14.7509 40.557 14.787 40.2128 14.7877C39.7997 14.7877 39.4183 14.7457 39.0688 14.656C38.7192 14.5661 38.4141 14.4345 38.1598 14.2608C37.9056 14.0813 37.7022 13.8597 37.556 13.5963C37.4099 13.3329 37.3336 13.0156 37.3209 12.6504H38.77V12.6384ZM43.5115 8.46574H44.5984V6.62188H46.0348V8.46574H47.3315V9.47754H46.0348V12.7582C46.0348 12.9019 46.0412 13.0216 46.0539 13.1293C46.0666 13.2312 46.0984 13.3209 46.1429 13.3928C46.1874 13.4646 46.2573 13.5185 46.3526 13.5544C46.448 13.5903 46.5687 13.6083 46.7341 13.6083C46.8357 13.6083 46.9374 13.6083 47.0391 13.6023C47.1408 13.5963 47.2425 13.5844 47.3442 13.5604V14.6081C47.1853 14.626 47.0264 14.638 46.8802 14.656C46.7277 14.6739 46.5751 14.6799 46.4162 14.6799C46.0348 14.6799 45.7297 14.644 45.501 14.5781C45.2722 14.5123 45.0879 14.4105 44.9607 14.2788C44.8272 14.1471 44.7446 13.9855 44.6938 13.7879C44.6442 13.5653 44.6165 13.3389 44.6111 13.1114V9.48945H43.5243V8.46574H43.5115ZM48.3484 8.46574H49.7086V9.29787H49.734C49.9374 8.93872 50.217 8.68725 50.5794 8.53158C50.9416 8.37599 51.3294 8.29815 51.7551 8.29815C52.27 8.29815 52.7149 8.38194 53.0963 8.55557C53.4777 8.72315 53.7955 8.95666 54.0497 9.25602C54.304 9.55538 54.4883 9.90254 54.6153 10.2977C54.7425 10.6928 54.8061 11.1178 54.8061 11.5668C54.8061 11.9799 54.7488 12.381 54.6344 12.7641C54.52 13.1533 54.3484 13.4945 54.1196 13.7939C53.8908 14.0932 53.5984 14.3267 53.2425 14.5063C52.8865 14.6859 52.4734 14.7757 51.9904 14.7757C51.7794 14.7756 51.5688 14.7575 51.3611 14.7218C51.1537 14.6859 50.9511 14.6276 50.7573 14.5482C50.5666 14.4704 50.3823 14.3686 50.2234 14.2429C50.0582 14.1172 49.9247 13.9735 49.8103 13.8118H49.7849V16.877H48.3484V8.46574ZM53.3696 11.5429C53.3696 11.2675 53.3315 10.9981 53.2552 10.7347C53.179 10.4713 53.0646 10.2438 52.912 10.0403C52.763 9.84064 52.5698 9.67506 52.3463 9.55538C52.1175 9.4356 51.8569 9.36976 51.5645 9.36976C50.9607 9.36976 50.5031 9.56728 50.198 9.96243C49.8929 10.3576 49.7403 10.8844 49.7403 11.5429C49.7403 11.8542 49.7785 12.1415 49.8611 12.405C49.9437 12.6684 50.0582 12.8959 50.2234 13.0875C50.3823 13.2791 50.573 13.4287 50.7955 13.5365C51.0179 13.6502 51.2785 13.7041 51.5709 13.7041C51.9014 13.7041 52.1747 13.6382 52.4035 13.5125C52.6323 13.3868 52.8166 13.2192 52.9629 13.0216C53.1128 12.8132 53.2206 12.5796 53.2807 12.3331C53.3378 12.0757 53.3696 11.8123 53.3696 11.5429ZM55.9056 6.125H57.3421V7.40613H55.9056V6.125ZM55.9056 8.46574H57.3421V14.6081H55.9056V8.46574ZM58.6259 6.125H60.0624V14.6081H58.6259V6.125ZM64.467 14.7757C63.9458 14.7757 63.4819 14.6919 63.0751 14.5302C62.6684 14.3686 62.3251 14.1411 62.0391 13.8597C61.7595 13.5724 61.5434 13.2312 61.3971 12.836C61.251 12.4409 61.1747 12.0039 61.1747 11.5309C61.1747 11.064 61.251 10.6329 61.3971 10.2378C61.5434 9.84274 61.7595 9.50144 62.0391 9.21408C62.3187 8.92672 62.6684 8.7052 63.0751 8.54357C63.4819 8.38194 63.9458 8.29815 64.467 8.29815C64.9882 8.29815 65.4523 8.38194 65.8591 8.54357C66.2658 8.7052 66.609 8.93276 66.895 9.21408C67.1747 9.50144 67.3908 9.84274 67.537 10.2378C67.6832 10.6329 67.7594 11.064 67.7594 11.5309C67.7594 12.0039 67.6832 12.4409 67.537 12.836C67.3908 13.2312 67.1747 13.5724 66.895 13.8597C66.6154 14.1471 66.2658 14.3686 65.8591 14.5302C65.4523 14.6919 64.9882 14.7757 64.467 14.7757ZM64.467 13.7041C64.7848 13.7041 65.0645 13.6382 65.2997 13.5125C65.5349 13.3868 65.7256 13.2192 65.878 13.0156C66.0306 12.812 66.1387 12.5786 66.2149 12.3212C66.2848 12.0637 66.323 11.8003 66.323 11.5309C66.323 11.2675 66.2848 11.0101 66.2149 10.7467C66.1496 10.4968 66.0353 10.2611 65.878 10.0523C65.7256 9.84869 65.5349 9.68706 65.2997 9.56133C65.0645 9.4356 64.7848 9.36976 64.467 9.36976C64.1492 9.36976 63.8696 9.4356 63.6344 9.56133C63.3993 9.68706 63.2085 9.85464 63.056 10.0523C62.9035 10.2557 62.7955 10.4833 62.7192 10.7467C62.6493 11.0101 62.6111 11.2675 62.6111 11.5309C62.6111 11.8003 62.6493 12.0637 62.7192 12.3212C62.7891 12.5786 62.9035 12.812 63.056 13.0156C63.2085 13.2192 63.3993 13.3868 63.6344 13.5125C63.8696 13.6442 64.1492 13.7041 64.467 13.7041ZM68.1789 8.46574H69.2658V6.62188H70.7022V8.46574H71.9988V9.47754H70.7022V12.7582C70.7022 12.9019 70.7086 13.0216 70.7213 13.1293C70.734 13.2312 70.7658 13.3209 70.8103 13.3928C70.8548 13.4646 70.9247 13.5185 71.02 13.5544C71.1154 13.5903 71.2361 13.6083 71.4013 13.6083C71.503 13.6083 71.6047 13.6083 71.7064 13.6023C71.8081 13.5963 71.9098 13.5844 72.0115 13.5604V14.6081C71.8527 14.626 71.6938 14.638 71.5476 14.656C71.395 14.6739 71.2425 14.6799 71.0835 14.6799C70.7022 14.6799 70.3971 14.644 70.1683 14.5781C69.9396 14.5123 69.7552 14.4105 69.6281 14.2788C69.4946 14.1471 69.412 13.9855 69.3611 13.7879C69.3116 13.5653 69.2839 13.3389 69.2785 13.1114V9.48945H68.1917V8.46574H68.1789Z" fill="#050E29"/>
<path d="M17.2436 6.12554H10.6589L8.62497 0.222656L6.58467 6.12554L0 6.1195L5.33259 9.77139L3.29229 15.6682L8.62497 12.0224L13.9513 15.6682L11.9173 9.77139L17.2436 6.12545V6.12554Z" fill="#04DA8D"/>
<path d="M12.375 11.1065L11.9174 9.77148L8.625 12.0225L12.375 11.1065Z" fill="#126849"/>
</g>
</g>
<defs>
<clipPath id="clip0_484_2319">
<rect width="72" height="17" fill="white"/>
</clipPath>
</defs>
</svg>
