<svg width="28" height="28" viewBox="0 0 28 28" fill="none" xmlns="http://www.w3.org/2000/svg">
<path fill-rule="evenodd" clip-rule="evenodd" d="M14.8353 7.42774L14.9112 7.3524C15.2402 7.06411 15.7578 7.04193 16.1158 7.28587L16.2018 7.3524L22.5899 12.9505L22.6276 12.9857L22.678 13.04L22.7434 13.1289L22.7922 13.2191L22.8244 13.3033L22.8509 13.4216L22.8572 13.516L22.8546 13.5762L22.8387 13.6766L22.8118 13.7657L22.7717 13.8545L22.7239 13.9325L22.6567 14.0162L22.5899 14.0815L16.2018 19.6797C15.8454 19.992 15.2676 19.992 14.9112 19.6797C14.5822 19.3914 14.5569 18.9378 14.8353 18.624L14.9112 18.5487L19.7398 14.3158H5.51805C5.01405 14.3158 4.60547 13.9577 4.60547 13.516C4.60547 13.0744 5.01405 12.7163 5.51805 12.7163H19.7416L14.9112 8.4834C14.5822 8.1951 14.5569 7.74147 14.8353 7.42774L14.9112 7.3524L14.8353 7.42774Z" fill="#F34F60"/>
<rect x="0.5" y="0.5" width="27" height="27" rx="13.5" stroke="#F34F60"/>
</svg>
