<svg width="30" height="5" viewBox="0 0 30 5" fill="none" xmlns="http://www.w3.org/2000/svg">
<g clip-path="url(#clip0_477_2219)">
<path fill-rule="evenodd" clip-rule="evenodd" d="M3.4629 4.23317C2.05721 4.12391 1.60062 3.34413 1.47316 2.80466C1.47316 2.80466 1.74801 2.87989 2.10705 2.92962C2.10807 2.92977 2.20414 2.94328 2.20608 2.91741C2.20985 2.86758 1.39677 2.62551 1.00281 1.94253C0.695398 1.40955 0.676592 0.898499 0.676592 0.898499C1.5015 1.05957 2.00844 1.26137 4.60368 1.19595C5.40733 1.19595 5.76586 1.36409 5.76586 2.36022C5.76586 3.05582 5.46508 4.21967 3.4629 4.23317ZM7.05882 2.32301C7.05882 2.19265 6.92224 2.10905 6.75335 2.05538L6.75671 2.0519C6.75671 2.0519 6.74662 2.05107 6.73062 2.04842C6.70345 2.04037 6.67562 2.03299 6.64749 2.02634C6.60947 2.01215 6.56875 1.99043 6.53823 1.95708C6.50291 1.91853 6.4816 1.86948 6.46876 1.82755C6.36164 1.10498 5.95657 0.443924 4.60368 0.443924H2.25388C2.17432 0.441222 1.95839 0.428648 1.44676 0.372015C0.950575 0.317096 0.506627 0.158938 0.502499 0.157483L0.0669602 0L0.0128873 0.467928C0.00631293 0.524769 -0.134858 1.84464 0.701463 2.51448L0.700749 2.52222C0.668591 2.87657 0.802627 3.64959 1.52917 4.27484C3.10406 5.63026 5.24455 4.77945 5.79211 4.18324C6.13479 3.81003 6.38059 3.36928 6.46555 2.8403C6.47799 2.79629 6.4999 2.742 6.53823 2.70012C6.55484 2.68199 6.57451 2.66744 6.59505 2.65549C6.65004 2.6412 6.70488 2.62463 6.75661 2.6053C6.92397 2.5429 7.05882 2.45249 7.05882 2.32301ZM4.99926 1.64726C4.81697 1.64726 4.69424 1.76167 4.69424 1.97261C4.69424 2.16922 4.81697 2.2801 4.99926 2.2801C5.1782 2.2801 5.30795 2.1621 5.30795 1.96903C5.30795 1.75808 5.1992 1.64726 4.99926 1.64726Z" fill="#3291F0"/>
<path fill-rule="evenodd" clip-rule="evenodd" d="M9.59484 3.70595C9.53978 3.73596 9.43809 3.75743 9.28979 3.75743C9.14148 3.75743 9.0398 3.73596 8.98047 3.70595V1.6597C9.09491 1.59536 9.27708 1.56103 9.4804 1.56103L9.5144 1.91281H9.54827C9.64569 1.70258 9.85332 1.51815 10.2347 1.51815C10.4846 1.51815 10.7346 1.59108 10.849 1.89134H10.8829C10.9719 1.68972 11.1794 1.51815 11.5566 1.51815C11.8743 1.51815 12.2472 1.63397 12.2472 2.3418V3.70595C12.1921 3.73596 12.0905 3.75743 11.9421 3.75743C11.7938 3.75743 11.6922 3.73596 11.6328 3.70595V2.45335C11.6328 2.23026 11.5608 2.0887 11.3193 2.0887C11.1074 2.0887 10.9846 2.2002 10.9126 2.33321C10.9168 2.37181 10.9211 2.4619 10.9211 2.55198V3.70595C10.866 3.73596 10.7685 3.75743 10.6202 3.75743C10.472 3.75743 10.3745 3.73596 10.3151 3.70595V2.45335C10.3151 2.23026 10.2431 2.0887 10.0016 2.0887C9.78555 2.0887 9.66688 2.2002 9.59484 2.33321V3.70595ZM13.7725 3.31555C14.0649 3.31555 14.1962 3.06677 14.1962 2.64205C14.1962 2.26458 14.0437 2.02862 13.7725 2.02862C13.4886 2.02862 13.3488 2.26458 13.3488 2.64205C13.3488 3.06677 13.4929 3.31555 13.7725 3.31555ZM14.8275 2.63778C14.8275 3.40996 14.425 3.82608 13.7725 3.82608C13.0903 3.82608 12.7175 3.43142 12.7175 2.63778C12.7175 1.93426 13.1454 1.51814 13.7725 1.51814C14.4123 1.51814 14.8275 1.90852 14.8275 2.63778ZM15.9164 3.70595C15.8613 3.73596 15.7596 3.75743 15.6113 3.75743C15.463 3.75743 15.3613 3.73596 15.302 3.70595V1.6597C15.4164 1.59536 15.5986 1.56103 15.8019 1.56103L15.8359 1.91281H15.8698C15.9714 1.68972 16.1876 1.51815 16.5731 1.51815C16.8951 1.51815 17.2765 1.63397 17.2765 2.3418V3.70595C17.2214 3.73596 17.1197 3.75743 16.9714 3.75743C16.8231 3.75743 16.7214 3.73596 16.6621 3.70595V2.45335C16.6621 2.23026 16.5858 2.0887 16.3359 2.0887C16.1155 2.0887 15.9926 2.2002 15.9164 2.33321V3.70595ZM19.128 2.42329C19.1619 2.2002 19.0813 1.98143 18.7763 1.98143C18.5136 1.98143 18.3526 2.15305 18.3356 2.42329H19.128ZM18.3526 2.87375C18.378 3.17401 18.5898 3.31984 19.0093 3.31984C19.2805 3.31984 19.5178 3.25982 19.6703 3.19115C19.683 3.35418 19.6153 3.56435 19.5178 3.6759C19.378 3.75743 19.1407 3.82605 18.8483 3.82605C18.1068 3.82605 17.7128 3.39278 17.7128 2.69786C17.7128 1.98143 18.1365 1.51815 18.8018 1.51815C19.4203 1.51815 19.7042 1.90422 19.7042 2.47049C19.7042 2.60778 19.6788 2.76221 19.6406 2.87375H18.3526ZM23.2722 3.27698C23.3315 3.29412 23.4291 3.30699 23.5223 3.30699C23.9205 3.30699 24.0857 3.06248 24.0857 2.64208C24.0857 2.25169 23.9333 2.06298 23.6621 2.06298C23.4672 2.06298 23.3527 2.15301 23.2722 2.26029V3.27698ZM23.268 1.86135C23.3443 1.68546 23.535 1.51816 23.8569 1.51816C24.2934 1.51816 24.717 1.79268 24.717 2.58628C24.717 3.40134 24.2722 3.82606 23.5052 3.82606C23.2044 3.82606 22.8909 3.76172 22.6664 3.66304V0.664449C22.8104 0.582961 23.0096 0.54008 23.2807 0.54008V1.23073C23.2807 1.41949 23.2638 1.68546 23.2341 1.86135H23.268ZM25.1831 1.63825C25.2423 1.60824 25.3441 1.58677 25.4924 1.58677C25.6406 1.58677 25.7424 1.60824 25.7975 1.63825V3.70596C25.7424 3.73597 25.6406 3.75744 25.4924 3.75744C25.3441 3.75744 25.2423 3.73597 25.1831 3.70596V1.63825ZM27.5134 1.51815C27.5939 1.51815 27.6617 1.53102 27.7125 1.55676C27.7718 1.66398 27.8015 1.78412 27.8015 1.94714C27.8015 2.07151 27.7845 2.14873 27.7633 2.2088C27.6829 2.1616 27.6023 2.1359 27.471 2.1359C27.2549 2.1359 27.0939 2.28601 27.0134 2.5091V3.70596C26.9583 3.73597 26.8566 3.75743 26.7084 3.75743C26.5601 3.75743 26.4583 3.73597 26.3991 3.70596V1.65971C26.5134 1.59536 26.6914 1.56103 26.8947 1.56103L26.9371 1.95569H26.971C27.0304 1.71978 27.1659 1.51815 27.5134 1.51815ZM21.8477 1.56963C21.6994 1.56963 21.5977 1.59109 21.5426 1.62111V2.99385C21.4621 3.13109 21.3393 3.24691 21.1105 3.24691C20.8562 3.24691 20.7757 3.10108 20.7757 2.87376V1.62111C20.7164 1.59109 20.6147 1.56963 20.4664 1.56963C20.3181 1.56963 20.2165 1.59109 20.1613 1.62111V2.98526C20.1613 3.69309 20.5469 3.80891 20.8774 3.80891C21.2673 3.80891 21.4302 3.68675 21.5235 3.47225H21.5515C21.5525 3.90502 21.5534 3.88475 21.5501 3.95433C21.5363 4.23974 21.318 4.37023 20.9214 4.37023C20.6611 4.37023 20.4335 4.31264 20.2871 4.24678C20.275 4.40313 20.34 4.60481 20.4335 4.71185C20.5677 4.79003 20.7953 4.85594 21.0758 4.85594C21.6976 4.85594 22.1554 4.5128 22.1554 3.98103C22.1554 3.84642 22.156 2.98052 22.1562 2.50391L22.1565 2.50359V2.19157V2.19042V1.62111C22.0972 1.59109 21.996 1.56963 21.8477 1.56963ZM29.4179 2.26029C29.3373 2.15302 29.2229 2.06294 29.028 2.06294C28.7568 2.06294 28.6043 2.2517 28.6043 2.64208C28.6043 3.06248 28.7696 3.30699 29.1678 3.30699C29.261 3.30699 29.3585 3.29412 29.4179 3.27698V2.26029ZM29.456 1.86135C29.4263 1.68546 29.4094 1.41949 29.4094 1.23073V0.540039C29.6805 0.540039 29.8536 0.582556 30.0011 0.664043V3.65934C29.7731 3.75802 29.4856 3.82607 29.1848 3.82607C28.4179 3.82607 27.973 3.40135 27.973 2.58629C27.973 1.79269 28.3967 1.51817 28.8331 1.51817C29.1551 1.51817 29.3458 1.68546 29.422 1.86135H29.456Z" fill="#3291F0"/>
</g>
<defs>
<clipPath id="clip0_477_2219">
<rect width="30" height="5" fill="white"/>
</clipPath>
</defs>
</svg>
